<svg width="24" height="24" viewBox="0 0 24 24" fill="none" xmlns="http://www.w3.org/2000/svg">
<path d="M21.6008 11.4001L13.8383 3.5251C13.5008 3.1876 12.9758 3.1876 12.6383 3.5251C12.3008 3.8626 12.3008 4.3876 12.6383 4.7251L18.9383 11.1376H3.00078C2.55078 11.1376 2.17578 11.5126 2.17578 11.9626C2.17578 12.4126 2.55078 12.8251 3.00078 12.8251H19.0133L12.6383 19.3126C12.3008 19.6501 12.3008 20.1751 12.6383 20.5126C12.7883 20.6626 13.0133 20.7376 13.2383 20.7376C13.4633 20.7376 13.6883 20.6626 13.8383 20.4751L21.6008 12.6001C21.9383 12.2626 21.9383 11.7376 21.6008 11.4001Z" fill="#111928"/>
</svg>
