<svg width="24" height="24" viewBox="0 0 24 24" fill="none" xmlns="http://www.w3.org/2000/svg">
<path d="M20.9996 11.175H4.98711L11.3621 4.6875C11.6996 4.35 11.6996 3.825 11.3621 3.4875C11.0246 3.15 10.4996 3.15 10.1621 3.4875L2.39961 11.3625C2.06211 11.7 2.06211 12.225 2.39961 12.5625L10.1621 20.4375C10.3121 20.5875 10.5371 20.7 10.7621 20.7C10.9871 20.7 11.1746 20.625 11.3621 20.475C11.6996 20.1375 11.6996 19.6125 11.3621 19.275L5.02461 12.8625H20.9996C21.4496 12.8625 21.8246 12.4875 21.8246 12.0375C21.8246 11.55 21.4496 11.175 20.9996 11.175Z" fill="#111928"/>
</svg>
