<svg width="24" height="24" viewBox="0 0 24 24" fill="none" xmlns="http://www.w3.org/2000/svg">
<path d="M18.1859 5.925C17.8859 5.5875 17.4734 5.4375 17.0234 5.4375H6.26094C5.81094 5.4375 5.39844 5.8125 5.39844 6.3C5.39844 6.7875 5.77344 7.1625 6.26094 7.1625H16.8359L16.4234 9.4125H7.23594C6.78594 9.4125 6.37344 9.7875 6.37344 10.275C6.37344 10.7625 6.74844 11.1375 7.23594 11.1375H16.1609L15.4484 15.15L12.2234 16.3125L8.99844 15.075L8.58594 13.0125C8.51094 12.5625 8.06094 12.2625 7.57344 12.3375C7.12344 12.4125 6.82344 12.8625 6.89844 13.35L7.34844 15.6C7.42344 16.05 7.76094 16.425 8.21094 16.575L11.7359 17.85C11.8859 17.8875 12.0359 17.925 12.1859 17.925C12.3359 17.925 12.4859 17.8875 12.6359 17.85L16.1609 16.575C16.6109 16.425 16.9484 16.0125 17.0234 15.5625L18.5234 7.2C18.5984 6.75 18.4859 6.3375 18.1859 5.9625V5.925Z" fill="#111928"/>
<path d="M21.9373 1.61257C21.3748 1.01257 20.5873 0.637573 19.7623 0.637573H4.23728C3.41229 0.675073 2.62479 1.01257 2.06229 1.61257C1.49979 2.21257 1.23729 3.07507 1.34979 3.86257L3.18729 19.3501C3.33729 20.5501 4.23728 21.5626 5.39978 21.8251L11.3248 23.2501C11.5498 23.2876 11.7748 23.3251 11.9998 23.3251C12.2248 23.3251 12.4498 23.2876 12.6748 23.2501L18.5998 21.8626C19.7623 21.6001 20.6623 20.5876 20.8123 19.3876L22.6498 3.90007C22.7248 3.07507 22.4623 2.25007 21.9373 1.61257ZM20.9623 3.71257L19.1248 19.2001C19.0498 19.6876 18.7123 20.1001 18.1873 20.2501L12.2623 21.6376C12.0748 21.6751 11.8873 21.6751 11.6998 21.6376L5.81228 20.2501C5.32478 20.1376 4.94978 19.7251 4.87478 19.2001L3.03729 3.71257C2.99979 3.33757 3.11229 3.00007 3.33729 2.73757C3.56229 2.47507 3.89978 2.32507 4.23728 2.32507H19.7623C20.0998 2.32507 20.4373 2.47507 20.6623 2.73757C20.8873 3.00007 20.9998 3.33757 20.9623 3.71257Z" fill="#111928"/>
</svg>
