<svg width="24" height="24" viewBox="0 0 24 24" fill="none" xmlns="http://www.w3.org/2000/svg">
<path d="M21.0383 4.1626H2.96328C1.68828 4.1626 0.675781 5.1751 0.675781 6.4501V17.5501C0.675781 18.8251 1.68828 19.8376 2.96328 19.8376H21.0758C22.3508 19.8376 23.3633 18.8251 23.3633 17.5501V6.4501C23.3633 5.1751 22.3133 4.1626 21.0383 4.1626ZM2.36328 6.9001L9.18828 11.0626L2.36328 17.4376V6.9001ZM12.3008 10.6126C12.1133 10.7251 11.8508 10.7251 11.6633 10.6126L3.86328 5.8501H19.9883L12.3008 10.6126ZM10.6508 11.9626L10.8008 12.0751C11.1758 12.3001 11.5883 12.4126 12.0008 12.4126C12.4133 12.4126 12.8258 12.3001 13.2008 12.0751L13.3508 12.0001L19.8383 18.1876H4.01328L10.6508 11.9626ZM21.6758 17.5501C21.6383 17.5501 21.6758 17.5501 21.6758 17.5501L14.8133 11.0626L21.6383 6.7876V17.5501H21.6758Z" fill="#111928"/>
</svg>
