<svg width="24" height="24" viewBox="0 0 24 24" fill="none" xmlns="http://www.w3.org/2000/svg">
<path d="M15.8992 8.0625C18.0742 8.0625 19.7992 6.3375 19.7992 4.1625C19.7992 1.9875 17.9992 0.375 15.8992 0.375H8.09922C5.92422 0.375 4.19922 2.1 4.19922 4.275C4.19922 6.45 5.92422 8.175 8.09922 8.175C5.92422 8.175 4.19922 9.9 4.19922 12.075C4.19922 14.25 5.92422 15.975 8.09922 15.975C5.92422 15.975 4.19922 17.7 4.19922 19.875C4.19922 22.05 5.96172 23.625 8.09922 23.625C10.2367 23.625 11.9992 21.9 11.9992 19.725V8.175H15.8992V8.0625ZM15.8992 8.0625C13.7242 8.0625 11.9992 9.7875 11.9992 11.9625C11.9992 14.1375 13.7242 15.8625 15.8992 15.8625C18.0742 15.8625 19.7992 14.1375 19.7992 11.9625C19.6867 9.7875 17.9992 8.0625 15.8992 8.0625Z" fill="#111928"/>
</svg>
