<svg width="24" height="24" viewBox="0 0 24 24" fill="none" xmlns="http://www.w3.org/2000/svg">
<path d="M12.1877 17.7376C12.0002 17.7376 11.8502 17.7001 11.7002 17.6251L8.70015 16.4251C8.25015 16.2376 7.95015 15.8626 7.87515 15.4126L7.53765 13.5376C7.46265 13.0876 7.76265 12.6376 8.21265 12.5626C8.66265 12.4876 9.11265 12.7876 9.18765 13.2376L9.48765 14.9251L12.1877 16.0126L14.8877 14.8876L15.5627 11.5501H8.51265C7.87515 11.5501 7.31265 11.1001 7.20015 10.4251L6.67515 7.42507C6.60015 7.01257 6.71265 6.56257 6.97515 6.22507L7.01265 6.18757C7.31265 5.88757 7.68765 5.70007 8.13765 5.70007H16.8377C17.2877 5.70007 17.7002 6.07507 17.7002 6.56257C17.7002 7.05007 17.3252 7.42507 16.8377 7.42507H8.36265L8.81265 9.90007H16.0127C16.4252 9.90007 16.8002 10.0876 17.0627 10.3876C17.3252 10.6876 17.4377 11.1001 17.3252 11.5126L16.5377 15.3751C16.4627 15.8251 16.1627 16.2001 15.7502 16.3501L12.7502 17.5876C12.5627 17.7001 12.3752 17.7376 12.1877 17.7376Z" fill="#111928"/>
<path d="M12.0005 23.3249C11.7755 23.3249 11.5505 23.2874 11.3255 23.2499L5.40049 21.8624C4.23799 21.5999 3.338 20.5874 3.188 19.3874L1.3505 3.89993C1.2755 3.07493 1.538 2.24993 2.063 1.61243C2.6255 1.01243 3.413 0.674927 4.23799 0.674927H19.763C20.588 0.674927 21.3755 1.01243 21.938 1.64993C22.5005 2.24993 22.763 3.11243 22.6505 3.89993L20.813 19.3874C20.663 20.5874 19.763 21.5999 18.6005 21.8624L12.6755 23.2499C12.4505 23.3249 12.2255 23.3249 12.0005 23.3249ZM4.23799 2.36243C3.90049 2.36243 3.563 2.51243 3.338 2.77493C3.113 2.99993 3.0005 3.33743 3.038 3.71243L4.87549 19.1999C4.95049 19.6874 5.28799 20.0999 5.81299 20.2499L11.738 21.6374C11.9255 21.6749 12.113 21.6749 12.3005 21.6374L18.188 20.2499C18.6755 20.1374 19.0505 19.7249 19.1255 19.1999L20.963 3.71243C21.0005 3.33743 20.888 2.99993 20.663 2.73743C20.438 2.47493 20.1005 2.32493 19.763 2.32493H4.23799V2.36243Z" fill="#111928"/>
</svg>
