<svg width="24" height="24" viewBox="0 0 24 24" fill="none" xmlns="http://www.w3.org/2000/svg">
<path d="M18.2245 22.8374C15.187 22.8374 10.8745 20.6624 6.8995 16.9124C1.4995 11.7374 -0.787999 5.96238 1.612 3.41238C1.7245 3.29988 1.8745 3.18738 2.0245 3.11238L5.062 1.38738C5.8495 0.937383 6.8245 1.16238 7.3495 1.91238L9.562 5.06238C9.8245 5.43738 9.937 5.88738 9.8245 6.33738C9.7495 6.74988 9.487 7.12488 9.112 7.38738L7.7995 8.24988C8.812 9.71238 11.5495 13.3499 15.8995 15.9374C15.937 15.9749 15.9745 15.9374 15.9745 15.9374L16.912 14.6624C17.437 13.9499 18.4495 13.7624 19.237 14.2499L22.537 16.3499C23.3245 16.8374 23.5495 17.8499 23.062 18.6374L21.262 21.5249C21.1495 21.6749 21.037 21.8249 20.9245 21.9374C20.2495 22.5374 19.312 22.8374 18.2245 22.8374ZM5.9245 2.84988C5.887 2.84988 5.9245 2.84988 5.9245 2.84988L2.8495 4.57488C1.4245 6.11238 3.187 11.0249 8.0995 15.6749C13.087 20.3999 18.2245 22.0874 19.8745 20.6624L21.6745 17.7749L18.3745 15.6749C18.337 15.6749 18.2995 15.6749 18.2995 15.6749L17.362 16.9499C16.837 17.6624 15.8245 17.8499 15.0745 17.3999C10.387 14.5874 7.462 10.6874 6.412 9.14988C6.1495 8.77488 6.0745 8.32488 6.1495 7.91238C6.2245 7.46238 6.487 7.08738 6.862 6.86238L8.1745 5.99988L5.9995 2.88738C5.962 2.88738 5.9245 2.84988 5.9245 2.84988Z" fill="#111928"/>
</svg>
