<svg width="24" height="24" viewBox="0 0 24 24" fill="none" xmlns="http://www.w3.org/2000/svg">
<path fill-rule="evenodd" clip-rule="evenodd" d="M15.15 2.9984C15.598 2.848 15.8988 2.848 15.8988 2.848L15.0028 24L1.50195 21.4496C1.50195 21.4496 3.30035 7.80161 3.30035 7.35041C3.30035 6.75199 3.30035 6.75199 4.04917 6.4512C4.11446 6.4512 4.29262 6.39446 4.57159 6.30566C4.935 6.18994 5.46949 6.01976 6.14835 5.84959C6.59955 3.90079 8.10037 0 11.2492 0C11.7004 0 12.1484 0.1472 12.4492 0.7488H12.5996C13.95 0.7488 14.6988 1.7984 15.15 2.9984ZM10.8988 4.36267C11.4247 4.20248 11.9686 4.0368 12.4492 3.7472C12.4492 2.848 12.2988 2.24641 12.1484 1.64481C11.3996 1.94561 10.5004 2.8448 10.0492 4.6464C10.3174 4.53979 10.6053 4.45208 10.8988 4.36267ZM11.55 1.0496C11.3995 0.899201 11.2492 0.899201 11.0988 0.899201C8.99636 0.899201 7.64917 3.7472 7.19797 5.55199C7.49876 5.4768 7.79876 5.364 8.09876 5.2512C8.39876 5.1384 8.69876 5.0256 8.99959 4.95041C9.45079 2.5504 10.6507 1.5008 11.55 1.0496ZM9.89876 10.7968C10.798 10.7968 11.6972 11.248 11.6972 11.248L12.2956 8.55041C12.2956 8.55041 11.6972 8.24959 10.4971 8.24959C7.19797 8.24959 5.69715 10.3488 5.69715 12.5984C5.69715 14.1119 6.54731 14.7762 7.29367 15.3595C7.87759 15.8158 8.39797 16.2224 8.39797 16.9472C8.39797 17.2448 8.24756 17.8464 7.49876 17.8464C6.44917 17.8464 5.24917 16.7968 5.24917 16.7968L4.64756 18.896C4.64756 18.896 5.84756 20.3968 8.24756 20.3968C10.1964 20.3968 11.6972 18.896 11.6972 16.6464C11.6972 14.8098 10.4594 13.9289 9.50017 13.2462C8.89335 12.8144 8.39797 12.4618 8.39797 11.9968C8.39797 11.696 8.39797 10.7968 9.89876 10.7968ZM12.8972 1.6448C13.0476 2.096 13.198 2.6976 13.198 3.4464V3.5968C13.4236 3.5968 13.6108 3.5592 13.798 3.5216C13.9852 3.484 14.1724 3.4464 14.398 3.4464C14.0972 2.544 13.646 1.6448 12.8972 1.6448ZM19.646 4.49599C19.7964 4.49599 19.9468 4.49599 19.9468 4.6464C19.9468 4.722 20.5913 9.19493 21.2323 13.6438C21.8664 18.0451 22.4972 22.4228 22.4972 22.496L15.2972 23.9968L16.1964 2.9984H16.3468C16.4972 3.1488 17.6972 4.34561 17.6972 4.34561C17.6972 4.34561 19.4956 4.49599 19.646 4.49599Z" fill="#111928"/>
</svg>
