<svg width="24" height="24" viewBox="0 0 24 24" fill="none" xmlns="http://www.w3.org/2000/svg">
<path fill-rule="evenodd" clip-rule="evenodd" d="M6.59512 9.75C7.33346 6.75011 9.17985 5.25 12.1336 5.25C16.5644 5.25 17.1182 8.625 19.3336 9.1875C20.8106 9.56261 22.1028 9.00011 23.2105 7.5C22.4721 10.4999 20.6258 12 17.672 12C13.2413 12 12.6874 8.625 10.472 8.0625C8.99501 7.68739 7.7028 8.24989 6.59512 9.75ZM1.05664 16.5C1.79498 13.5001 3.64137 12 6.59512 12C11.0259 12 11.5797 15.375 13.7951 15.9375C15.2721 16.3126 16.5644 15.7501 17.672 14.25C16.9337 17.2499 15.0873 18.75 12.1336 18.75C7.7028 18.75 7.14896 15.375 4.93357 14.8125C3.45652 14.4374 2.16433 14.9999 1.05664 16.5Z" fill="#111928"/>
</svg>
